<mxfile host="app.diagrams.net" modified="2023-11-15T15:04:44.002Z" agent="Mozilla/5.0 (Windows NT 10.0; Win64; x64) AppleWebKit/537.36 (KHTML, like Gecko) Chrome/120.0.0.0 Safari/537.36 Edg/120.0.0.0" etag="xXZa_0n5G1cysHuZW21P" version="22.1.1" type="github">
  <diagram name="Page-1" id="42789a77-a242-8287-6e28-9cd8cfd52e62">
    <mxGraphModel dx="2237" dy="1320" grid="0" gridSize="10" guides="1" tooltips="1" connect="1" arrows="1" fold="1" page="1" pageScale="1" pageWidth="1654" pageHeight="1169" background="none" math="0" shadow="0">
      <root>
        <mxCell id="0" />
        <mxCell id="1" parent="0" />
        <mxCell id="SEyN5DobXSdOFwQs9KvG-2" value="" style="shape=curlyBracket;whiteSpace=wrap;html=1;rounded=1;labelPosition=left;verticalLabelPosition=middle;align=right;verticalAlign=middle;strokeColor=#FFFFFF;fontColor=#1A1A1A;fillColor=#F08E81;" vertex="1" parent="1">
          <mxGeometry x="452" y="46.5" width="20" height="120" as="geometry" />
        </mxCell>
        <mxCell id="SEyN5DobXSdOFwQs9KvG-3" value="" style="shape=curlyBracket;whiteSpace=wrap;html=1;rounded=1;flipH=1;labelPosition=right;verticalLabelPosition=middle;align=left;verticalAlign=middle;strokeColor=#FFFFFF;fontColor=#1A1A1A;fillColor=#F08E81;" vertex="1" parent="1">
          <mxGeometry x="452" y="46.5" width="20" height="120" as="geometry" />
        </mxCell>
        <mxCell id="SEyN5DobXSdOFwQs9KvG-4" value="" style="shape=curlyBracket;whiteSpace=wrap;html=1;rounded=1;labelPosition=left;verticalLabelPosition=middle;align=right;verticalAlign=middle;strokeColor=#0e8088;fillColor=#b0e3e6;strokeWidth=5;perimeterSpacing=2;shadow=0;" vertex="1" parent="1">
          <mxGeometry x="455" y="65" width="46" height="120" as="geometry" />
        </mxCell>
        <mxCell id="SEyN5DobXSdOFwQs9KvG-5" value="Goslarite" style="rounded=1;whiteSpace=wrap;html=1;strokeWidth=2;fillWeight=4;hachureGap=8;hachureAngle=45;fillColor=default;sketch=1;strokeColor=#FFFFFF;fontColor=#1A1A1A;fontStyle=1;fontSize=18;labelBorderColor=none;fontFamily=Lucida Console;gradientColor=#94C9FF;gradientDirection=radial;" vertex="1" parent="1">
          <mxGeometry x="495" y="78" width="143" height="31" as="geometry" />
        </mxCell>
        <mxCell id="SEyN5DobXSdOFwQs9KvG-6" value="Moissanite" style="rounded=1;whiteSpace=wrap;html=1;strokeWidth=2;fillWeight=4;hachureGap=8;hachureAngle=45;fillColor=default;sketch=1;strokeColor=#FFFFFF;fontColor=#1A1A1A;fontStyle=1;fontSize=18;labelBorderColor=none;fontFamily=Lucida Console;gradientColor=#94C9FF;gradientDirection=radial;" vertex="1" parent="1">
          <mxGeometry x="495" y="113" width="143" height="31" as="geometry" />
        </mxCell>
        <mxCell id="SEyN5DobXSdOFwQs9KvG-7" value="Minerals" style="text;strokeColor=none;fillColor=none;html=1;fontSize=24;fontStyle=1;verticalAlign=middle;align=left;fontColor=#1A1A1A;" vertex="1" parent="1">
          <mxGeometry x="506" y="40" width="100" height="40" as="geometry" />
        </mxCell>
        <mxCell id="SEyN5DobXSdOFwQs9KvG-10" value="Extraction" style="rounded=1;whiteSpace=wrap;html=1;strokeColor=#FFFFFF;fontColor=#1A1A1A;fillColor=#F08E81;fontSize=36;" vertex="1" parent="1">
          <mxGeometry x="764" y="91" width="251" height="89" as="geometry" />
        </mxCell>
        <mxCell id="SEyN5DobXSdOFwQs9KvG-11" value="Refinery" style="rounded=1;whiteSpace=wrap;html=1;strokeColor=#FFFFFF;fontColor=#1A1A1A;fillColor=#F08E81;fontSize=36;" vertex="1" parent="1">
          <mxGeometry x="764" y="256.5" width="251" height="89" as="geometry" />
        </mxCell>
        <mxCell id="SEyN5DobXSdOFwQs9KvG-12" value="High Tech" style="rounded=1;whiteSpace=wrap;html=1;strokeColor=#FFFFFF;fontColor=#1A1A1A;fillColor=#F08E81;fontSize=36;" vertex="1" parent="1">
          <mxGeometry x="1389" y="372" width="251" height="89" as="geometry" />
        </mxCell>
        <mxCell id="SEyN5DobXSdOFwQs9KvG-13" value="Industrial" style="rounded=1;whiteSpace=wrap;html=1;strokeColor=#FFFFFF;fontColor=#1A1A1A;fillColor=#F08E81;fontSize=36;" vertex="1" parent="1">
          <mxGeometry x="764" y="369.5" width="251" height="89" as="geometry" />
        </mxCell>
        <mxCell id="SEyN5DobXSdOFwQs9KvG-15" value="Microbial Furnaces" style="rounded=1;whiteSpace=wrap;html=1;strokeWidth=2;fillWeight=4;hachureGap=8;hachureAngle=45;fillColor=default;sketch=1;strokeColor=#FFFFFF;fontColor=#1A1A1A;fontStyle=1;fontSize=18;labelBorderColor=none;fontFamily=Lucida Console;gradientColor=#94C9FF;gradientDirection=radial;" vertex="1" parent="1">
          <mxGeometry x="1092" y="327" width="217" height="31" as="geometry" />
        </mxCell>
        <mxCell id="SEyN5DobXSdOFwQs9KvG-24" style="edgeStyle=orthogonalEdgeStyle;rounded=0;orthogonalLoop=1;jettySize=auto;html=1;exitX=0.25;exitY=0;exitDx=0;exitDy=0;strokeColor=#182E3E;fontColor=#1A1A1A;" edge="1" parent="1" source="SEyN5DobXSdOFwQs9KvG-16">
          <mxGeometry relative="1" as="geometry">
            <mxPoint x="1154.1461385091147" y="310.1613667805991" as="targetPoint" />
          </mxGeometry>
        </mxCell>
        <mxCell id="SEyN5DobXSdOFwQs9KvG-16" value="Mineral Extractors" style="rounded=1;whiteSpace=wrap;html=1;strokeWidth=2;fillWeight=4;hachureGap=8;hachureAngle=45;fillColor=default;sketch=1;strokeColor=#FFFFFF;fontColor=#1A1A1A;fontStyle=1;fontSize=18;labelBorderColor=none;fontFamily=Lucida Console;gradientColor=#94C9FF;gradientDirection=radial;" vertex="1" parent="1">
          <mxGeometry x="1091" y="291.5" width="218" height="31" as="geometry" />
        </mxCell>
        <mxCell id="SEyN5DobXSdOFwQs9KvG-17" value="Machinery" style="text;strokeColor=none;fillColor=none;html=1;fontSize=24;fontStyle=1;verticalAlign=middle;align=right;fontColor=#1A1A1A;" vertex="1" parent="1">
          <mxGeometry x="1084" y="252" width="216" height="39.5" as="geometry" />
        </mxCell>
        <mxCell id="SEyN5DobXSdOFwQs9KvG-18" value="" style="shape=curlyBracket;whiteSpace=wrap;html=1;rounded=1;labelPosition=left;verticalLabelPosition=middle;align=right;verticalAlign=middle;strokeColor=#0e8088;fillColor=#b0e3e6;strokeWidth=5;perimeterSpacing=2;shadow=0;rotation=-180;" vertex="1" parent="1">
          <mxGeometry x="1303" y="272.5" width="46" height="120" as="geometry" />
        </mxCell>
        <mxCell id="SEyN5DobXSdOFwQs9KvG-20" value="Consumer Technology" style="rounded=1;whiteSpace=wrap;html=1;strokeWidth=2;fillWeight=4;hachureGap=8;hachureAngle=45;fillColor=default;sketch=1;strokeColor=#FFFFFF;fontColor=#1A1A1A;fontStyle=1;fontSize=18;labelBorderColor=none;fontFamily=Lucida Console;gradientColor=#94C9FF;gradientDirection=radial;" vertex="1" parent="1">
          <mxGeometry x="1105" y="467" width="227" height="31" as="geometry" />
        </mxCell>
        <mxCell id="SEyN5DobXSdOFwQs9KvG-21" value="xxx" style="rounded=1;whiteSpace=wrap;html=1;strokeWidth=2;fillWeight=4;hachureGap=8;hachureAngle=45;fillColor=default;sketch=1;strokeColor=#FFFFFF;fontColor=#1A1A1A;fontStyle=1;fontSize=18;labelBorderColor=none;fontFamily=Lucida Console;gradientColor=#94C9FF;gradientDirection=radial;" vertex="1" parent="1">
          <mxGeometry x="1102" y="502" width="231" height="31" as="geometry" />
        </mxCell>
        <mxCell id="SEyN5DobXSdOFwQs9KvG-22" value="Consumer Items" style="text;strokeColor=none;fillColor=none;html=1;fontSize=24;fontStyle=1;verticalAlign=middle;align=left;fontColor=#1A1A1A;" vertex="1" parent="1">
          <mxGeometry x="1105" y="429" width="221" height="40" as="geometry" />
        </mxCell>
        <mxCell id="SEyN5DobXSdOFwQs9KvG-23" value="" style="shape=curlyBracket;whiteSpace=wrap;html=1;rounded=1;labelPosition=left;verticalLabelPosition=middle;align=right;verticalAlign=middle;strokeColor=#0e8088;fillColor=#b0e3e6;strokeWidth=5;perimeterSpacing=2;shadow=0;rotation=-180;" vertex="1" parent="1">
          <mxGeometry x="1324" y="450" width="46" height="120" as="geometry" />
        </mxCell>
        <mxCell id="SEyN5DobXSdOFwQs9KvG-25" value="" style="endArrow=classic;html=1;strokeColor=#82b366;fontColor=#1A1A1A;exitX=0;exitY=0.5;exitDx=0;exitDy=0;entryX=1;entryY=0.5;entryDx=0;entryDy=0;fillColor=#d5e8d4;gradientColor=#97d077;curved=1;strokeWidth=6;sketch=1;curveFitting=1;jiggle=2;" edge="1" parent="1" source="SEyN5DobXSdOFwQs9KvG-15" target="SEyN5DobXSdOFwQs9KvG-11">
          <mxGeometry relative="1" as="geometry">
            <mxPoint x="606" y="530" as="sourcePoint" />
            <mxPoint x="706" y="530" as="targetPoint" />
          </mxGeometry>
        </mxCell>
        <mxCell id="SEyN5DobXSdOFwQs9KvG-29" value="" style="endArrow=classic;html=1;strokeColor=#82b366;fontColor=#1A1A1A;exitX=0;exitY=0.5;exitDx=0;exitDy=0;entryX=1;entryY=0.5;entryDx=0;entryDy=0;fillColor=#d5e8d4;gradientColor=#97d077;curved=1;strokeWidth=6;sketch=1;curveFitting=1;jiggle=2;" edge="1" parent="1" source="SEyN5DobXSdOFwQs9KvG-16" target="SEyN5DobXSdOFwQs9KvG-10">
          <mxGeometry relative="1" as="geometry">
            <mxPoint x="1102" y="269" as="sourcePoint" />
            <mxPoint x="1025" y="311" as="targetPoint" />
          </mxGeometry>
        </mxCell>
        <mxCell id="SEyN5DobXSdOFwQs9KvG-30" value="" style="shape=curlyBracket;whiteSpace=wrap;html=1;rounded=1;labelPosition=left;verticalLabelPosition=middle;align=right;verticalAlign=middle;strokeColor=#0e8088;fillColor=#b0e3e6;strokeWidth=5;perimeterSpacing=2;shadow=0;" vertex="1" parent="1">
          <mxGeometry x="475" y="467" width="46" height="120" as="geometry" />
        </mxCell>
        <mxCell id="SEyN5DobXSdOFwQs9KvG-31" value="Liquor" style="rounded=1;whiteSpace=wrap;html=1;strokeWidth=2;fillWeight=4;hachureGap=8;hachureAngle=45;fillColor=default;sketch=1;strokeColor=#FF8000;fontColor=#1A1A1A;fontStyle=1;fontSize=18;labelBorderColor=none;fontFamily=Lucida Console;gradientColor=#94C9FF;gradientDirection=radial;" vertex="1" parent="1">
          <mxGeometry x="515" y="480" width="167" height="31" as="geometry" />
        </mxCell>
        <mxCell id="SEyN5DobXSdOFwQs9KvG-32" value="Bootleg Liquor" style="rounded=1;whiteSpace=wrap;html=1;strokeWidth=2;fillWeight=4;hachureGap=8;hachureAngle=45;fillColor=#000066;sketch=1;strokeColor=#FFFFFF;fontColor=#FFFFFF;fontStyle=1;fontSize=18;labelBorderColor=none;fontFamily=Lucida Console;gradientColor=#516F8C;gradientDirection=radial;" vertex="1" parent="1">
          <mxGeometry x="515" y="515" width="165" height="31" as="geometry" />
        </mxCell>
        <mxCell id="SEyN5DobXSdOFwQs9KvG-33" value="Legal Drugs" style="text;strokeColor=none;fillColor=none;html=1;fontSize=24;fontStyle=1;verticalAlign=middle;align=left;fontColor=#1A1A1A;" vertex="1" parent="1">
          <mxGeometry x="526" y="442" width="100" height="40" as="geometry" />
        </mxCell>
        <mxCell id="SEyN5DobXSdOFwQs9KvG-34" value="Agricultural" style="rounded=1;whiteSpace=wrap;html=1;strokeColor=#FFFFFF;fontColor=#1A1A1A;fillColor=#F08E81;fontSize=36;" vertex="1" parent="1">
          <mxGeometry x="764" y="471" width="251" height="89" as="geometry" />
        </mxCell>
        <mxCell id="SEyN5DobXSdOFwQs9KvG-35" value="" style="endArrow=doubleBlock;html=1;strokeColor=#C73500;fontColor=#1A1A1A;exitX=0;exitY=0.5;exitDx=0;exitDy=0;entryX=1;entryY=0.5;entryDx=0;entryDy=0;fillColor=#fa6800;curved=1;strokeWidth=6;sketch=1;curveFitting=1;jiggle=2;startArrow=none;startFill=0;targetPerimeterSpacing=0;endFill=1;" edge="1" parent="1" source="SEyN5DobXSdOFwQs9KvG-13" target="SEyN5DobXSdOFwQs9KvG-31">
          <mxGeometry relative="1" as="geometry">
            <mxPoint x="806" y="664" as="sourcePoint" />
            <mxPoint x="730" y="550" as="targetPoint" />
            <Array as="points">
              <mxPoint x="710" y="443" />
            </Array>
          </mxGeometry>
        </mxCell>
        <mxCell id="SEyN5DobXSdOFwQs9KvG-37" value="" style="endArrow=doubleBlock;html=1;strokeColor=#C73500;fontColor=#1A1A1A;exitX=0;exitY=0.5;exitDx=0;exitDy=0;fillColor=#fa6800;curved=1;strokeWidth=6;sketch=1;curveFitting=1;jiggle=2;startArrow=none;startFill=0;targetPerimeterSpacing=0;endFill=1;entryX=1;entryY=0.75;entryDx=0;entryDy=0;" edge="1" parent="1" source="SEyN5DobXSdOFwQs9KvG-34" target="SEyN5DobXSdOFwQs9KvG-31">
          <mxGeometry relative="1" as="geometry">
            <mxPoint x="774" y="424" as="sourcePoint" />
            <mxPoint x="691" y="575" as="targetPoint" />
            <Array as="points">
              <mxPoint x="739" y="550" />
              <mxPoint x="720" y="453" />
            </Array>
          </mxGeometry>
        </mxCell>
        <mxCell id="SEyN5DobXSdOFwQs9KvG-39" value="xxx" style="rounded=1;whiteSpace=wrap;html=1;strokeWidth=2;fillWeight=4;hachureGap=8;hachureAngle=45;fillColor=default;sketch=1;strokeColor=#FFFFFF;fontColor=#1A1A1A;fontStyle=1;fontSize=18;labelBorderColor=none;fontFamily=Lucida Console;gradientColor=#94C9FF;gradientDirection=radial;" vertex="1" parent="1">
          <mxGeometry x="516" y="552" width="170" height="31" as="geometry" />
        </mxCell>
        <mxCell id="SEyN5DobXSdOFwQs9KvG-41" value="" style="endArrow=classic;html=1;strokeColor=#82b366;fontColor=#1A1A1A;exitX=1;exitY=0.5;exitDx=0;exitDy=0;entryX=0;entryY=0.5;entryDx=0;entryDy=0;fillColor=#d5e8d4;gradientColor=#97d077;curved=1;strokeWidth=6;sketch=1;curveFitting=1;jiggle=2;" edge="1" parent="1" target="SEyN5DobXSdOFwQs9KvG-32">
          <mxGeometry relative="1" as="geometry">
            <mxPoint x="411" y="415.5" as="sourcePoint" />
            <mxPoint x="297" y="604" as="targetPoint" />
            <Array as="points">
              <mxPoint x="420" y="475" />
            </Array>
          </mxGeometry>
        </mxCell>
        <mxCell id="SEyN5DobXSdOFwQs9KvG-42" value="" style="shape=curlyBracket;whiteSpace=wrap;html=1;rounded=1;labelPosition=left;verticalLabelPosition=middle;align=right;verticalAlign=middle;strokeColor=#0e8088;fillColor=#b0e3e6;strokeWidth=5;perimeterSpacing=2;shadow=0;" vertex="1" parent="1">
          <mxGeometry x="1055" y="612" width="46" height="120" as="geometry" />
        </mxCell>
        <mxCell id="SEyN5DobXSdOFwQs9KvG-43" value="Performance Enhancers" style="rounded=1;whiteSpace=wrap;html=1;strokeWidth=2;fillWeight=4;hachureGap=8;hachureAngle=45;fillColor=default;sketch=1;strokeColor=#FF8000;fontColor=#1A1A1A;fontStyle=1;fontSize=18;labelBorderColor=none;fontFamily=Lucida Console;gradientColor=#94C9FF;gradientDirection=radial;" vertex="1" parent="1">
          <mxGeometry x="1095" y="625" width="253" height="31" as="geometry" />
        </mxCell>
        <mxCell id="SEyN5DobXSdOFwQs9KvG-45" value="Medicines" style="text;strokeColor=none;fillColor=none;html=1;fontSize=24;fontStyle=1;verticalAlign=middle;align=left;fontColor=#1A1A1A;" vertex="1" parent="1">
          <mxGeometry x="1106" y="587" width="100" height="40" as="geometry" />
        </mxCell>
        <mxCell id="SEyN5DobXSdOFwQs9KvG-46" value="x" style="rounded=1;whiteSpace=wrap;html=1;strokeWidth=2;fillWeight=4;hachureGap=8;hachureAngle=45;fillColor=default;sketch=1;strokeColor=#FFFFFF;fontColor=#1A1A1A;fontStyle=1;fontSize=18;labelBorderColor=none;fontFamily=Lucida Console;gradientColor=#94C9FF;gradientDirection=radial;" vertex="1" parent="1">
          <mxGeometry x="1096" y="697" width="253" height="31" as="geometry" />
        </mxCell>
        <mxCell id="SEyN5DobXSdOFwQs9KvG-47" value="" style="endArrow=doubleBlock;html=1;strokeColor=#C73500;fontColor=#1A1A1A;exitX=0.25;exitY=1;exitDx=0;exitDy=0;fillColor=#fa6800;curved=1;strokeWidth=6;sketch=1;curveFitting=1;jiggle=2;startArrow=none;startFill=0;targetPerimeterSpacing=0;endFill=1;entryX=1;entryY=0.5;entryDx=0;entryDy=0;" edge="1" parent="1" source="SEyN5DobXSdOFwQs9KvG-12" target="SEyN5DobXSdOFwQs9KvG-43">
          <mxGeometry relative="1" as="geometry">
            <mxPoint x="1216.757" y="724.0049999999999" as="sourcePoint" />
            <mxPoint x="853" y="725.77" as="targetPoint" />
            <Array as="points">
              <mxPoint x="1432" y="568" />
            </Array>
          </mxGeometry>
        </mxCell>
        <mxCell id="SEyN5DobXSdOFwQs9KvG-48" value="" style="endArrow=doubleBlock;html=1;strokeColor=#C73500;fontColor=#1A1A1A;fillColor=#fa6800;curved=1;strokeWidth=6;sketch=1;curveFitting=1;jiggle=2;startArrow=none;startFill=0;targetPerimeterSpacing=0;endFill=1;exitX=0;exitY=0.5;exitDx=0;exitDy=0;entryX=0.75;entryY=1;entryDx=0;entryDy=0;" edge="1" parent="1" source="SEyN5DobXSdOFwQs9KvG-12" target="SEyN5DobXSdOFwQs9KvG-15">
          <mxGeometry relative="1" as="geometry">
            <mxPoint x="1404" y="191" as="sourcePoint" />
            <mxPoint x="727" y="872" as="targetPoint" />
            <Array as="points">
              <mxPoint x="1314" y="428" />
            </Array>
          </mxGeometry>
        </mxCell>
        <mxCell id="SEyN5DobXSdOFwQs9KvG-49" value="Colony" style="rounded=1;whiteSpace=wrap;html=1;strokeColor=#FFFFFF;fontColor=#1A1A1A;fillColor=#F08E81;fontSize=36;" vertex="1" parent="1">
          <mxGeometry x="131" y="187.5" width="251" height="89" as="geometry" />
        </mxCell>
        <mxCell id="SEyN5DobXSdOFwQs9KvG-50" value="Tourist" style="rounded=1;whiteSpace=wrap;html=1;strokeColor=#FFFFFF;fontColor=#1A1A1A;fillColor=#F08E81;fontSize=36;" vertex="1" parent="1">
          <mxGeometry x="40" y="608" width="251" height="89" as="geometry" />
        </mxCell>
        <mxCell id="SEyN5DobXSdOFwQs9KvG-52" value="Military" style="rounded=1;whiteSpace=wrap;html=1;strokeColor=#FFFFFF;fontColor=#1A1A1A;fillColor=#F08E81;fontSize=36;" vertex="1" parent="1">
          <mxGeometry x="1261" y="903" width="251" height="89" as="geometry" />
        </mxCell>
        <mxCell id="SEyN5DobXSdOFwQs9KvG-53" value="" style="shape=curlyBracket;whiteSpace=wrap;html=1;rounded=1;labelPosition=left;verticalLabelPosition=middle;align=right;verticalAlign=middle;strokeColor=#FFFFFF;fontColor=#1A1A1A;fillColor=#F08E81;" vertex="1" parent="1">
          <mxGeometry x="452" y="210.5" width="20" height="120" as="geometry" />
        </mxCell>
        <mxCell id="SEyN5DobXSdOFwQs9KvG-54" value="" style="shape=curlyBracket;whiteSpace=wrap;html=1;rounded=1;flipH=1;labelPosition=right;verticalLabelPosition=middle;align=left;verticalAlign=middle;strokeColor=#FFFFFF;fontColor=#1A1A1A;fillColor=#F08E81;" vertex="1" parent="1">
          <mxGeometry x="452" y="210.5" width="20" height="120" as="geometry" />
        </mxCell>
        <mxCell id="SEyN5DobXSdOFwQs9KvG-55" value="" style="shape=curlyBracket;whiteSpace=wrap;html=1;rounded=1;labelPosition=left;verticalLabelPosition=middle;align=right;verticalAlign=middle;strokeColor=#0e8088;fillColor=#b0e3e6;strokeWidth=5;perimeterSpacing=2;shadow=0;" vertex="1" parent="1">
          <mxGeometry x="455" y="229" width="46" height="186" as="geometry" />
        </mxCell>
        <mxCell id="SEyN5DobXSdOFwQs9KvG-56" value="Gold" style="rounded=1;whiteSpace=wrap;html=1;strokeWidth=2;fillWeight=4;hachureGap=8;hachureAngle=45;fillColor=default;sketch=1;strokeColor=#FFFFFF;fontColor=#1A1A1A;fontStyle=1;fontSize=18;labelBorderColor=none;fontFamily=Lucida Console;gradientColor=#94C9FF;gradientDirection=radial;" vertex="1" parent="1">
          <mxGeometry x="495" y="311" width="143" height="35" as="geometry" />
        </mxCell>
        <mxCell id="SEyN5DobXSdOFwQs9KvG-57" value="Moissanite" style="rounded=1;whiteSpace=wrap;html=1;strokeWidth=2;fillWeight=4;hachureGap=8;hachureAngle=45;fillColor=default;sketch=1;strokeColor=#FFFFFF;fontColor=#1A1A1A;fontStyle=1;fontSize=18;labelBorderColor=none;fontFamily=Lucida Console;gradientColor=#94C9FF;gradientDirection=radial;" vertex="1" parent="1">
          <mxGeometry x="495" y="267" width="143" height="41" as="geometry" />
        </mxCell>
        <mxCell id="SEyN5DobXSdOFwQs9KvG-58" value="Metals" style="text;strokeColor=none;fillColor=none;html=1;fontSize=24;fontStyle=1;verticalAlign=middle;align=left;fontColor=#1A1A1A;" vertex="1" parent="1">
          <mxGeometry x="506" y="204" width="100" height="40" as="geometry" />
        </mxCell>
        <mxCell id="SEyN5DobXSdOFwQs9KvG-59" value="" style="endArrow=classic;html=1;strokeColor=#82b366;fontColor=#1A1A1A;exitX=1;exitY=0.5;exitDx=0;exitDy=0;entryX=0;entryY=0.5;entryDx=0;entryDy=0;fillColor=#d5e8d4;gradientColor=#97d077;curved=1;strokeWidth=6;sketch=1;curveFitting=1;jiggle=2;" edge="1" parent="1" source="SEyN5DobXSdOFwQs9KvG-56" target="SEyN5DobXSdOFwQs9KvG-13">
          <mxGeometry relative="1" as="geometry">
            <mxPoint x="1101" y="317" as="sourcePoint" />
            <mxPoint x="1025" y="203" as="targetPoint" />
            <Array as="points">
              <mxPoint x="714" y="282" />
              <mxPoint x="660" y="374" />
            </Array>
          </mxGeometry>
        </mxCell>
        <mxCell id="SEyN5DobXSdOFwQs9KvG-60" value="" style="shape=curlyBracket;whiteSpace=wrap;html=1;rounded=1;labelPosition=left;verticalLabelPosition=middle;align=right;verticalAlign=middle;strokeColor=#0e8088;fillColor=#b0e3e6;strokeWidth=5;perimeterSpacing=2;shadow=0;" vertex="1" parent="1">
          <mxGeometry x="591" y="809" width="46" height="120" as="geometry" />
        </mxCell>
        <mxCell id="SEyN5DobXSdOFwQs9KvG-62" value="Waste" style="text;strokeColor=none;fillColor=none;html=1;fontSize=24;fontStyle=1;verticalAlign=middle;align=left;fontColor=#1A1A1A;" vertex="1" parent="1">
          <mxGeometry x="642" y="784" width="100" height="40" as="geometry" />
        </mxCell>
        <mxCell id="SEyN5DobXSdOFwQs9KvG-63" value="Biowaste" style="rounded=1;whiteSpace=wrap;html=1;strokeWidth=2;fillWeight=4;hachureGap=8;hachureAngle=45;fillColor=default;sketch=1;strokeColor=#FFFFFF;fontColor=#1A1A1A;fontStyle=1;fontSize=18;labelBorderColor=none;fontFamily=Lucida Console;gradientColor=#94C9FF;gradientDirection=radial;" vertex="1" parent="1">
          <mxGeometry x="630" y="828" width="253" height="31" as="geometry" />
        </mxCell>
        <mxCell id="SEyN5DobXSdOFwQs9KvG-64" value="" style="endArrow=classic;html=1;strokeColor=#82b366;fontColor=#1A1A1A;entryX=0.5;entryY=1;entryDx=0;entryDy=0;fillColor=#d5e8d4;gradientColor=#97d077;curved=1;strokeWidth=6;sketch=1;curveFitting=1;jiggle=2;" edge="1" parent="1" source="SEyN5DobXSdOFwQs9KvG-63" target="SEyN5DobXSdOFwQs9KvG-34">
          <mxGeometry relative="1" as="geometry">
            <mxPoint x="648" y="266" as="sourcePoint" />
            <mxPoint x="774" y="424" as="targetPoint" />
            <Array as="points">
              <mxPoint x="778" y="700" />
            </Array>
          </mxGeometry>
        </mxCell>
        <mxCell id="SEyN5DobXSdOFwQs9KvG-66" value="Surface" style="shape=hexagon;perimeter=hexagonPerimeter2;whiteSpace=wrap;html=1;fixedSize=1;strokeColor=#FFFFFF;fontColor=#1A1A1A;fillColor=#66FF66;fontSize=14;rounded=1;rotation=-90;" vertex="1" parent="1">
          <mxGeometry x="696" y="153" width="131" height="37" as="geometry" />
        </mxCell>
        <mxCell id="SEyN5DobXSdOFwQs9KvG-68" value="" style="endArrow=doubleBlock;html=1;strokeColor=#C73500;fontColor=#1A1A1A;exitX=0.5;exitY=0;exitDx=0;exitDy=0;entryX=1;entryY=0.75;entryDx=0;entryDy=0;fillColor=#fa6800;curved=1;strokeWidth=6;sketch=1;curveFitting=1;jiggle=2;startArrow=none;startFill=0;targetPerimeterSpacing=0;endFill=1;" edge="1" parent="1" source="SEyN5DobXSdOFwQs9KvG-66" target="SEyN5DobXSdOFwQs9KvG-57">
          <mxGeometry relative="1" as="geometry">
            <mxPoint x="774" y="598" as="sourcePoint" />
            <mxPoint x="692" y="680" as="targetPoint" />
            <Array as="points">
              <mxPoint x="670" y="225" />
            </Array>
          </mxGeometry>
        </mxCell>
        <mxCell id="SEyN5DobXSdOFwQs9KvG-70" value="Service" style="rounded=1;whiteSpace=wrap;html=1;strokeColor=#FFFFFF;fontColor=#1A1A1A;fillColor=#F08E81;fontSize=36;" vertex="1" parent="1">
          <mxGeometry x="174" y="784" width="251" height="89" as="geometry" />
        </mxCell>
        <mxCell id="SEyN5DobXSdOFwQs9KvG-71" value="Orbital" style="shape=hexagon;perimeter=hexagonPerimeter2;whiteSpace=wrap;html=1;fixedSize=1;strokeColor=#FFFFFF;fontColor=#1A1A1A;fillColor=#66FF66;fontSize=18;rounded=1;rotation=-90;" vertex="1" parent="1">
          <mxGeometry x="359" y="767" width="131" height="37" as="geometry" />
        </mxCell>
        <mxCell id="SEyN5DobXSdOFwQs9KvG-72" value="" style="endArrow=classic;html=1;strokeColor=#82b366;fontColor=#1A1A1A;exitX=0;exitY=0.5;exitDx=0;exitDy=0;entryX=1;entryY=0.5;entryDx=0;entryDy=0;fillColor=#d5e8d4;gradientColor=#97d077;curved=1;strokeWidth=6;sketch=1;curveFitting=1;jiggle=2;" edge="1" parent="1" source="SEyN5DobXSdOFwQs9KvG-57" target="SEyN5DobXSdOFwQs9KvG-71">
          <mxGeometry relative="1" as="geometry">
            <mxPoint x="160" y="955" as="sourcePoint" />
            <mxPoint x="286" y="1040" as="targetPoint" />
            <Array as="points">
              <mxPoint x="281" y="379" />
            </Array>
          </mxGeometry>
        </mxCell>
        <mxCell id="SEyN5DobXSdOFwQs9KvG-73" value="" style="endArrow=classic;html=1;strokeColor=#82b366;fontColor=#1A1A1A;fillColor=#d5e8d4;gradientColor=#97d077;curved=1;strokeWidth=6;sketch=1;curveFitting=1;jiggle=2;" edge="1" parent="1" target="SEyN5DobXSdOFwQs9KvG-50">
          <mxGeometry relative="1" as="geometry">
            <mxPoint x="490" y="286" as="sourcePoint" />
            <mxPoint x="435" y="730" as="targetPoint" />
            <Array as="points">
              <mxPoint x="291" y="389" />
            </Array>
          </mxGeometry>
        </mxCell>
      </root>
    </mxGraphModel>
  </diagram>
</mxfile>
